<svg width="1294" height="740" xmlns="http://www.w3.org/2000/svg" xmlns:xlink="http://www.w3.org/1999/xlink" overflow="hidden"><defs><clipPath id="clip0"><rect x="-1" y="-20" width="1294" height="740"/></clipPath><clipPath id="clip1"><rect x="1118" y="555" width="133" height="132"/></clipPath><clipPath id="clip2"><rect x="1118" y="555" width="133" height="132"/></clipPath><clipPath id="clip3"><rect x="1118" y="555" width="133" height="132"/></clipPath></defs><g clip-path="url(#clip0)" transform="translate(1 20)"><rect x="0" y="-1" width="1293" height="720" fill="#FFFFF4"/><g clip-path="url(#clip1)"><g clip-path="url(#clip2)"><g clip-path="url(#clip3)"><path d="M-0.0504304 54.2054 133.031 54.2054 133.031 187.512-0.0504304 187.512Z" fill="#FFFFD5" transform="matrix(1.00758 0 0 1 1118 500.314)"/><path d="M160.897 265.979C161.356 265.979 161.876 265.829 162.458 265.528 163.048 265.219 163.344 264.985 163.344 264.826L163.344 261C161.891 261.432 161.019 261.703 160.729 261.817 160.194 262.022 159.773 262.312 159.462 262.688 159.163 263.054 159.013 263.495 159.013 264.009 159.013 264.535 159.195 264.995 159.561 265.388 159.927 265.782 160.372 265.979 160.897 265.979ZM162.416 255.01C163.232 255.01 163.944 255.385 164.553 256.135 165.173 256.885 165.482 257.794 165.482 258.863L165.482 264.656C165.482 265.538 165.772 265.979 166.353 265.979 166.438 265.979 166.518 265.974 166.592 265.964 166.677 265.945 166.747 265.926 166.804 265.907 166.859 265.88 166.916 265.852 166.973 265.823 167.039 265.786 167.085 265.757 167.113 265.74 167.151 265.711 167.183 265.683 167.212 265.655 167.248 265.626 167.272 265.613 167.282 265.613 167.356 265.613 167.394 265.687 167.394 265.837 167.394 266.034 167.348 266.212 167.253 266.372 167.039 266.569 166.696 266.798 166.227 267.06 165.767 267.314 165.407 267.441 165.143 267.441 164.75 267.441 164.39 267.253 164.062 266.878 163.734 266.493 163.522 266.072 163.429 265.613 163.156 265.884 162.617 266.269 161.811 266.766 161.015 267.253 160.4 267.496 159.969 267.496 159.041 267.496 158.258 267.187 157.621 266.569 156.993 265.941 156.678 265.171 156.678 264.263 156.678 263.728 156.823 263.254 157.114 262.841 157.414 262.42 157.738 262.143 158.085 262.012 158.394 261.9 158.956 261.703 159.773 261.422 160.588 261.14 161.267 260.901 161.811 260.704 162.365 260.508 162.763 260.353 163.006 260.241 163.148 260.184 163.236 260.114 163.274 260.029 163.321 259.945 163.344 259.781 163.344 259.538L163.344 258.779C163.344 258.112 163.105 257.499 162.627 256.936 162.158 256.364 161.591 256.079 160.926 256.079 160.456 256.079 160.105 256.223 159.87 256.514 159.646 256.796 159.481 257.232 159.378 257.822 159.219 258.722 158.778 259.172 158.057 259.172 157.775 259.172 157.545 259.05 157.367 258.806 157.189 258.563 157.1 258.29 157.1 257.99 157.1 257.915 157.119 257.803 157.156 257.653 157.204 257.494 157.251 257.38 157.297 257.315 157.879 256.771 158.647 256.252 159.604 255.755 160.569 255.258 161.506 255.009 162.416 255.009ZM145.414 255.319C145.733 255.319 146.033 255.315 146.314 255.305 146.606 255.286 146.928 255.262 147.285 255.235 147.651 255.207 147.964 255.188 148.227 255.178 148.265 255.262 148.269 255.421 148.241 255.656 148.222 255.882 148.18 255.994 148.114 255.994 147.993 255.994 147.839 256.003 147.651 256.022 147.473 256.041 147.276 256.092 147.06 256.176 146.845 256.252 146.737 256.35 146.737 256.472 146.737 256.509 146.745 256.547 146.764 256.584L149.858 264.178C150.814 261.684 151.65 259.556 152.361 257.793 152.475 257.522 152.53 257.222 152.53 256.894 152.53 256.612 152.38 256.392 152.081 256.233 151.781 256.073 151.387 255.994 150.899 255.994 150.833 255.994 150.801 255.876 150.801 255.643 150.801 255.408 150.833 255.253 150.899 255.178 151.096 255.188 151.322 255.207 151.574 255.235 151.827 255.262 152.071 255.286 152.306 255.305 152.54 255.315 152.83 255.319 153.177 255.319 153.497 255.319 153.782 255.315 154.035 255.305 154.288 255.286 154.574 255.262 154.893 255.235 155.211 255.207 155.511 255.188 155.793 255.178 155.85 255.262 155.863 255.421 155.835 255.656 155.807 255.882 155.765 255.994 155.708 255.994 155.465 255.994 155.141 256.068 154.739 256.219 154.345 256.369 154.077 256.612 153.937 256.95 151.931 261.731 150.524 265.116 149.718 267.103 149.68 267.206 149.572 267.31 149.394 267.413 149.217 267.526 149.081 267.581 148.986 267.581 148.855 267.581 148.77 267.544 148.734 267.469 148.292 266.428 147.767 265.143 147.158 263.616 146.549 262.088 146.011 260.766 145.541 259.65 145.072 258.525 144.608 257.494 144.149 256.557 143.971 256.181 143.455 255.994 142.602 255.994 142.49 255.721 142.49 255.45 142.602 255.178 142.874 255.188 143.183 255.207 143.53 255.235 143.877 255.262 144.191 255.286 144.473 255.305 144.763 255.315 145.077 255.319 145.415 255.319ZM136.977 254.953C137.586 254.953 138.102 255.033 138.523 255.192 138.945 255.353 139.292 255.577 139.564 255.867 139.836 256.159 140.047 256.557 140.197 257.063 140.356 257.569 140.464 258.122 140.52 258.722 140.577 259.322 140.605 260.054 140.605 260.916L140.605 264.009C140.605 265.097 140.652 265.791 140.745 266.091 140.783 266.222 141.017 266.33 141.449 266.415 141.889 266.499 142.245 266.541 142.517 266.541 142.574 266.616 142.602 266.751 142.602 266.948 142.611 267.146 142.583 267.282 142.517 267.356 140.595 267.263 139.592 267.216 139.508 267.216 139.18 267.216 138.861 267.225 138.552 267.244 138.252 267.254 137.905 267.273 137.511 267.301 137.117 267.329 136.789 267.348 136.527 267.356 136.461 267.282 136.428 267.146 136.428 266.948 136.437 266.751 136.47 266.616 136.527 266.541 136.799 266.541 137.15 266.499 137.581 266.415 138.022 266.33 138.261 266.222 138.299 266.091 138.392 265.791 138.439 265.097 138.439 264.009L138.439 261.197C138.439 259.426 138.247 258.216 137.863 257.569 137.488 256.912 136.761 256.584 135.683 256.584 135.364 256.584 134.984 256.697 134.544 256.923 134.112 257.147 133.747 257.382 133.447 257.625 133.156 257.869 133.011 258.038 133.011 258.131L133.011 264.009C133.011 265.097 133.058 265.791 133.152 266.091 133.189 266.222 133.423 266.33 133.855 266.415 134.295 266.499 134.652 266.541 134.923 266.541 134.98 266.616 135.008 266.751 135.008 266.948 135.017 267.146 134.989 267.282 134.923 267.356 133.002 267.263 131.998 267.216 131.914 267.216 131.586 267.216 131.267 267.225 130.958 267.244 130.658 267.254 130.311 267.273 129.917 267.301 129.523 267.329 129.195 267.348 128.933 267.356 128.867 267.282 128.834 267.146 128.834 266.948 128.844 266.751 128.877 266.616 128.933 266.541 129.205 266.541 129.556 266.499 129.987 266.415 130.428 266.33 130.667 266.222 130.705 266.091 130.798 265.791 130.845 265.097 130.845 264.009L130.845 258.891C130.845 258.066 130.798 257.541 130.705 257.316 130.648 257.175 130.47 257.063 130.17 256.978 129.87 256.894 129.617 256.847 129.411 256.838 129.214 256.819 129.036 256.81 128.877 256.81 128.839 256.773 128.816 256.66 128.806 256.472 128.806 256.284 128.83 256.153 128.877 256.079 130.48 255.863 131.82 255.469 132.898 254.898 132.964 254.898 133.03 254.953 133.095 255.065 133.17 255.179 133.208 255.272 133.208 255.347 133.095 256.134 133.039 256.669 133.039 256.95 133.039 257.025 133.058 257.063 133.095 257.063 133.114 257.063 133.142 257.044 133.18 257.007 133.555 256.595 134.131 256.149 134.909 255.67 135.688 255.192 136.377 254.953 136.977 254.953ZM121.015 265.979C121.475 265.979 121.995 265.829 122.577 265.528 123.167 265.219 123.462 264.985 123.462 264.826L123.462 261C122.009 261.432 121.137 261.703 120.847 261.817 120.312 262.022 119.89 262.312 119.581 262.688 119.281 263.054 119.131 263.495 119.131 264.009 119.131 264.535 119.314 264.995 119.68 265.388 120.045 265.782 120.49 265.979 121.015 265.979ZM122.534 255.01C123.35 255.01 124.062 255.385 124.672 256.135 125.291 256.885 125.6 257.794 125.6 258.863L125.6 264.656C125.6 265.538 125.891 265.979 126.472 265.979 126.556 265.979 126.636 265.974 126.711 265.964 126.795 265.945 126.866 265.926 126.922 265.907 126.978 265.88 127.034 265.852 127.091 265.823 127.156 265.786 127.203 265.757 127.231 265.74 127.269 265.711 127.301 265.683 127.33 265.655 127.367 265.626 127.391 265.613 127.4 265.613 127.475 265.613 127.512 265.687 127.512 265.837 127.512 266.034 127.465 266.212 127.372 266.372 127.156 266.569 126.814 266.798 126.345 267.06 125.886 267.314 125.525 267.441 125.262 267.441 124.869 267.441 124.508 267.253 124.18 266.878 123.851 266.493 123.641 266.072 123.547 265.613 123.275 265.884 122.736 266.269 121.93 266.766 121.133 267.253 120.519 267.496 120.087 267.496 119.159 267.496 118.376 267.187 117.739 266.569 117.111 265.941 116.797 265.171 116.797 264.263 116.797 263.728 116.942 263.254 117.233 262.841 117.533 262.42 117.856 262.143 118.203 262.012 118.512 261.9 119.075 261.703 119.89 261.422 120.706 261.14 121.386 260.901 121.93 260.704 122.483 260.508 122.881 260.353 123.125 260.241 123.265 260.184 123.355 260.114 123.392 260.029 123.439 259.945 123.462 259.781 123.462 259.538L123.462 258.779C123.462 258.112 123.223 257.499 122.745 256.936 122.276 256.364 121.709 256.079 121.044 256.079 120.575 256.079 120.223 256.223 119.989 256.514 119.764 256.796 119.6 257.232 119.497 257.822 119.337 258.722 118.897 259.172 118.175 259.172 117.894 259.172 117.664 259.05 117.486 258.806 117.308 258.563 117.219 258.29 117.219 257.99 117.219 257.915 117.237 257.803 117.275 257.653 117.322 257.494 117.369 257.38 117.415 257.315 117.997 256.771 118.765 256.252 119.722 255.755 120.687 255.258 121.625 255.009 122.534 255.009ZM111.073 251.578C111.073 250.829 111.026 250.341 110.933 250.116 110.792 249.778 110.22 249.61 109.217 249.61 109.208 249.61 109.198 249.553 109.189 249.441 109.179 249.319 109.175 249.198 109.175 249.075 109.184 248.954 109.208 248.889 109.245 248.878 110.539 248.747 111.87 248.372 113.239 247.753 113.305 247.753 113.37 247.805 113.436 247.907 113.511 248.002 113.548 248.1 113.548 248.203 113.342 248.804 113.239 249.619 113.239 250.651L113.239 264.009C113.239 265.097 113.286 265.791 113.38 266.091 113.417 266.222 113.651 266.33 114.083 266.415 114.523 266.499 114.88 266.541 115.151 266.541 115.208 266.616 115.236 266.751 115.236 266.948 115.245 267.146 115.217 267.282 115.151 267.356 113.23 267.263 112.226 267.216 112.142 267.216 111.814 267.216 111.495 267.225 111.186 267.244 110.886 267.254 110.539 267.273 110.145 267.301 109.751 267.329 109.423 267.348 109.161 267.356 109.095 267.282 109.062 267.146 109.062 266.948 109.072 266.751 109.105 266.616 109.161 266.541 109.433 266.541 109.784 266.499 110.215 266.415 110.656 266.33 110.895 266.222 110.933 266.091 111.026 265.791 111.073 265.097 111.073 264.009ZM104.295 267.117C103.986 266.799 103.831 266.429 103.831 266.006 103.831 265.585 103.986 265.228 104.295 264.938 104.614 264.638 104.984 264.487 105.406 264.487 105.828 264.487 106.184 264.638 106.475 264.938 106.775 265.228 106.925 265.585 106.925 266.006 106.925 266.429 106.775 266.799 106.475 267.117 106.184 267.426 105.828 267.582 105.406 267.582 104.984 267.582 104.614 267.426 104.295 267.117ZM104.295 257.78C103.986 257.461 103.831 257.09 103.831 256.669 103.831 256.248 103.986 255.891 104.295 255.6 104.614 255.3 104.984 255.15 105.406 255.15 105.828 255.15 106.184 255.3 106.475 255.6 106.775 255.891 106.925 256.248 106.925 256.669 106.925 257.09 106.775 257.461 106.475 257.78 106.184 258.089 105.828 258.243 105.406 258.243 104.984 258.243 104.614 258.089 104.295 257.78ZM97.9387 267.117C97.6293 266.799 97.4747 266.429 97.4747 266.006 97.4747 265.585 97.6293 265.228 97.9387 264.938 98.2575 264.638 98.6278 264.487 99.0497 264.487 99.4715 264.487 99.8278 264.638 100.118 264.938 100.418 265.228 100.568 265.585 100.568 266.006 100.568 266.429 100.418 266.799 100.118 267.117 99.8278 267.426 99.4715 267.582 99.0497 267.582 98.6278 267.582 98.2575 267.426 97.9387 267.117ZM97.9387 257.78C97.6293 257.461 97.4747 257.09 97.4747 256.669 97.4747 256.248 97.6293 255.891 97.9387 255.6 98.2575 255.3 98.6278 255.15 99.0497 255.15 99.4715 255.15 99.8278 255.3 100.118 255.6 100.418 255.891 100.568 256.248 100.568 256.669 100.568 257.09 100.418 257.461 100.118 257.78 99.8278 258.089 99.4715 258.243 99.0497 258.243 98.6278 258.243 98.2575 258.089 97.9387 257.78ZM85.9151 255.319C86.7777 255.319 87.7245 255.272 88.7558 255.179 88.7746 255.272 88.7839 255.412 88.7839 255.6 88.7839 255.788 88.7558 255.92 88.6995 255.994 87.9495 255.994 87.5745 256.153 87.5745 256.472 87.5745 256.538 87.6215 256.65 87.7152 256.81L89.5715 259.763C89.7215 259.519 89.9885 259.13 90.373 258.596 90.7667 258.061 91.0621 257.625 91.2589 257.287 91.4652 256.95 91.5683 256.697 91.5683 256.529 91.5683 256.398 91.4887 256.294 91.3293 256.219 91.1793 256.135 91.0198 256.083 90.8511 256.064 90.6823 256.036 90.4995 256.017 90.3027 256.009 90.1058 255.998 90.0027 255.994 89.9934 255.994 89.9652 255.975 89.9464 255.848 89.9371 255.614 89.9371 255.379 89.9557 255.235 89.9934 255.178 90.2652 255.188 90.5793 255.207 90.9356 255.235 91.2917 255.262 91.6105 255.286 91.8917 255.305 92.1824 255.315 92.4965 255.319 92.8339 255.319 93.6777 255.319 94.4276 255.272 95.084 255.178 95.1028 255.253 95.1074 255.408 95.098 255.643 95.098 255.877 95.084 255.994 95.0558 255.994 93.8839 256.06 93.162 256.265 92.8901 256.612 92.6558 256.94 92.2995 257.443 91.8213 258.118 91.3432 258.783 90.9495 259.327 90.64 259.749 90.3402 260.171 90.1525 260.429 90.0776 260.522L93.4526 265.528C93.9213 266.203 94.6433 266.541 95.6183 266.541 95.6371 266.541 95.6464 266.601 95.6464 266.724 95.6557 266.846 95.6557 266.972 95.6464 267.104 95.6371 267.235 95.6183 267.319 95.5901 267.356 95.3464 267.346 95.0558 267.329 94.7182 267.301 94.3807 267.272 94.076 267.253 93.8041 267.244 93.5417 267.225 93.2557 267.216 92.9463 267.216 92.59 267.216 92.2526 267.225 91.9339 267.244 91.615 267.254 91.2494 267.272 90.837 267.301 90.4339 267.329 90.0963 267.348 89.8244 267.356 89.7869 267.263 89.7683 267.103 89.7683 266.878 89.7776 266.654 89.8057 266.541 89.8525 266.541 90.1244 266.523 90.387 266.47 90.64 266.387 90.9026 266.302 91.0338 266.184 91.0338 266.034 91.0338 265.998 91.0152 265.941 90.9777 265.866 90.0025 264.272 89.262 263.101 88.7557 262.35 88.6526 262.5 88.3619 262.927 87.8839 263.63 87.415 264.324 87.0307 264.91 86.7307 265.388 86.6182 265.566 86.5619 265.744 86.5619 265.922 86.5619 266.034 86.5994 266.133 86.6745 266.218 86.7494 266.292 86.8713 266.353 87.0401 266.4 87.2182 266.438 87.3541 266.466 87.4478 266.485 87.551 266.495 87.7197 266.508 87.9541 266.527 88.0197 266.537 88.0713 266.541 88.1088 266.541 88.1276 266.541 88.1416 266.603 88.1511 266.724 88.1604 266.837 88.1604 266.958 88.1511 267.09 88.1418 267.221 88.1183 267.31 88.0807 267.356 87.8183 267.348 87.5229 267.329 87.1947 267.301 86.8666 267.273 86.5666 267.254 86.2947 267.244 86.0323 267.225 85.7369 267.216 85.4088 267.216 85.0901 267.216 84.7947 267.225 84.5228 267.244 84.2604 267.254 83.9651 267.273 83.6369 267.301 83.3088 267.329 83.0182 267.348 82.765 267.356 82.7368 267.244 82.7275 267.1 82.7368 266.921 82.7557 266.734 82.7838 266.607 82.8213 266.541 82.8587 266.531 82.9713 266.512 83.1587 266.485 83.3464 266.457 83.4682 266.438 83.5244 266.429 83.5901 266.419 83.7072 266.4 83.876 266.372 84.0541 266.334 84.1807 266.302 84.2556 266.275 84.34 266.237 84.4526 266.19 84.5932 266.133 84.7338 266.078 84.8463 266.021 84.9307 265.964 85.0245 265.899 85.1229 265.824 85.226 265.74 85.3292 265.646 85.4182 265.547 85.4932 265.445 87.237 262.932 88.1558 261.61 88.2495 261.478L84.9869 256.614C84.8463 256.398 84.5838 256.243 84.1995 256.149 83.8244 256.047 83.4588 255.994 83.1026 255.994 83.0838 255.994 83.0697 255.939 83.0603 255.825 83.0603 255.713 83.065 255.592 83.0743 255.46 83.0837 255.329 83.1025 255.235 83.1306 255.179 84.1619 255.272 85.0899 255.319 85.9149 255.319ZM77.6744 251.593C77.4025 251.32 77.2666 250.988 77.2666 250.594 77.2666 250.201 77.4025 249.868 77.6744 249.596 77.9463 249.324 78.2791 249.187 78.6728 249.187 79.0666 249.187 79.3994 249.324 79.6713 249.596 79.9432 249.868 80.0791 250.201 80.0791 250.594 80.0791 250.988 79.9432 251.32 79.6713 251.593 79.3994 251.864 79.0666 252.001 78.6728 252.001 78.2791 252.001 77.9463 251.864 77.6744 251.593ZM79.9667 258.131 79.9667 264.009C79.9667 265.097 80.0135 265.791 80.1072 266.091 80.1448 266.222 80.3791 266.33 80.8103 266.415 81.251 266.499 81.6073 266.541 81.8792 266.541 81.9353 266.616 81.9635 266.751 81.9635 266.948 81.9728 267.146 81.9447 267.282 81.8792 267.356 79.9572 267.263 78.9541 267.216 78.8698 267.216 78.5416 267.216 78.2228 267.225 77.9135 267.244 77.6134 267.254 77.2666 267.273 76.8729 267.301 76.4791 267.329 76.1509 267.348 75.8885 267.356 75.8228 267.282 75.79 267.146 75.79 266.948 75.7993 266.751 75.8321 266.616 75.8885 266.541 76.1603 266.541 76.5119 266.499 76.9431 266.415 77.3838 266.33 77.6229 266.222 77.6604 266.091 77.7353 265.856 77.7822 265.162 77.8009 264.009L77.8009 258.779C77.8009 258.029 77.7541 257.541 77.6604 257.316 77.6041 257.175 77.426 257.063 77.1259 256.978 76.8259 256.894 76.5728 256.847 76.3665 256.838 76.1697 256.819 75.9916 256.81 75.8323 256.81 75.7946 256.773 75.7713 256.66 75.7618 256.472 75.7618 256.284 75.7853 256.153 75.8323 256.079 77.4353 255.863 78.7761 255.469 79.8541 254.898 79.9197 254.898 79.9853 254.953 80.0509 255.065 80.126 255.179 80.1635 255.272 80.1635 255.347 80.0323 256.267 79.9667 256.885 79.9667 257.204ZM66.804 267.469C66.4008 267.469 65.7072 267.329 64.7227 267.047 64.6759 267.037 64.5773 267.009 64.4275 266.963 64.2775 266.916 64.1696 266.888 64.104 266.878 64.0477 266.859 63.954 266.842 63.8228 266.823 63.6914 266.794 63.5837 266.781 63.4993 266.781 63.4242 266.781 63.3305 266.789 63.2181 266.808 63.1055 266.818 62.9976 266.842 62.8946 266.878 62.829 266.878 62.7492 266.799 62.6555 266.639 62.5711 266.471 62.5289 266.345 62.5289 266.26 62.7539 265.763 62.8664 265.069 62.8664 264.178L62.8664 251.578C62.8664 250.829 62.8196 250.341 62.7257 250.116 62.5852 249.778 62.0133 249.61 61.0102 249.61 61.0008 249.61 60.9915 249.553 60.982 249.441 60.9727 249.319 60.968 249.198 60.968 249.075 60.9774 248.953 61.0008 248.887 61.0383 248.878 62.3321 248.747 63.6634 248.372 65.0322 247.753 65.0978 247.753 65.1634 247.805 65.229 247.907 65.3041 248.002 65.3415 248.1 65.3415 248.203 65.1353 248.804 65.0322 249.619 65.0322 250.65L65.0322 256.191C65.0322 256.248 65.0322 256.29 65.0322 256.318 65.0322 256.345 65.0368 256.388 65.0462 256.445 65.0648 256.491 65.0836 256.514 65.1025 256.514 65.1211 256.504 65.1539 256.491 65.2009 256.472 65.5851 256.191 66.1337 255.867 66.8462 255.501 67.5586 255.137 68.1447 254.953 68.604 254.953 69.4102 254.953 70.1463 255.131 70.8118 255.488 71.4869 255.844 72.0307 256.307 72.4431 256.88 72.865 257.452 73.1885 258.07 73.4134 258.736 73.6384 259.402 73.7509 260.063 73.7509 260.719 73.7509 261.629 73.5728 262.5 73.2166 263.334 72.8696 264.159 72.3915 264.877 71.7821 265.486 71.1727 266.087 70.4322 266.569 69.5602 266.935 68.6978 267.291 67.779 267.469 66.804 267.469ZM67.2539 256.614C66.9164 256.614 66.5227 256.703 66.0728 256.88 65.6228 257.058 65.3227 257.223 65.1727 257.372 65.079 257.466 65.032 257.569 65.032 257.682L65.032 264.517C65.032 265.088 65.3039 265.566 65.8477 265.951 66.3915 266.326 66.9915 266.512 67.6477 266.512 68.304 266.512 68.9227 266.283 69.5041 265.824 70.0853 265.355 70.5447 264.76 70.8822 264.038 71.2197 263.307 71.3885 262.566 71.3885 261.817 71.3885 260.194 71.0134 258.924 70.2635 258.006 69.5228 257.077 68.5196 256.614 67.2541 256.614ZM146.846 193.249 146.846 211.69C149.149 211.69 150.771 211.249 151.708 210.365 152.645 209.48 154.011 206.909 155.806 202.65 157.494 198.606 159.007 196.02 160.347 194.896 161.659 193.797 163.748 193.249 166.614 193.249L169.266 193.249 169.266 199.235 167.298 199.195C165.369 199.195 164.137 199.477 163.601 200.039 163.038 200.628 162.181 202.382 161.029 205.302 159.958 208.088 158.968 210.017 158.057 211.088 157.146 212.16 155.726 213.137 153.797 214.022 156.931 214.851 159.986 217.745 162.958 222.7L170.913 235.918 162.958 235.918 155.204 222.7C153.624 220.021 152.244 218.267 151.065 217.436 149.887 216.606 148.48 216.191 146.846 216.191L146.846 235.918 139.454 235.918 139.454 216.191C137.846 216.191 136.454 216.606 135.275 217.436 134.096 218.241 132.717 219.994 131.137 222.7L123.382 235.918 115.427 235.918 123.342 222.7C126.342 217.745 129.409 214.851 132.543 214.022 130.4 213.03 128.9 211.959 128.043 210.807 127.186 209.628 125.9 206.842 124.186 202.449 123.596 200.977 122.967 200.066 122.297 199.717 121.601 199.369 120.57 199.195 119.203 199.195 118.855 199.195 118.145 199.209 117.074 199.235L117.074 193.249 118.078 193.249C120.864 193.249 122.82 193.422 123.945 193.771 125.096 194.093 126.114 194.801 126.998 195.901 127.909 196.972 129.087 199.222 130.534 202.65 132.302 206.856 133.641 209.413 134.552 210.325 135.489 211.236 137.123 211.69 139.454 211.69L139.454 193.249ZM76.6593 227.763C74.1146 227.763 71.7709 227.345 69.628 226.508 67.5019 225.671 65.6268 224.441 64.003 222.817 62.1279 220.942 60.73 218.815 59.8092 216.439 58.9052 214.061 58.4531 211.357 58.4531 208.327 58.4531 205.296 58.9052 202.594 59.8092 200.216 60.73 197.822 62.1279 195.688 64.003 193.812 65.6436 192.172 67.5185 190.941 69.628 190.12 71.7373 189.284 74.0811 188.865 76.6593 188.865 80.0745 188.865 83.0711 189.568 85.6493 190.975 86.6705 190.539 87.6917 190.205 88.7129 189.97 89.935 189.686 91.1405 189.543 92.3291 189.543 96.0122 189.543 98.6825 190.464 100.34 192.306 101.997 194.147 102.826 197.135 102.826 201.27L102.826 232.409 107.597 232.409 107.597 235.096 91.9022 235.096 91.9022 232.409 97.7282 232.409 97.7282 201.471C97.7282 197.822 97.3347 195.369 96.5479 194.113 95.7611 192.858 94.3715 192.23 92.3794 192.23 90.9061 192.23 89.8012 192.632 89.0646 193.436 89.3324 193.686 89.5919 193.946 89.843 194.214 93.1913 197.78 94.8654 202.484 94.8654 208.327 94.8654 211.323 94.4051 214.027 93.4843 216.439 92.5635 218.815 91.1656 220.942 89.2905 222.817 87.6331 224.457 85.7582 225.696 83.6655 226.533 81.5561 227.353 79.2207 227.763 76.6593 227.763ZM76.6593 225.076C80.7609 225.076 83.8581 223.671 85.9506 220.857 88.0434 218.029 89.0896 213.851 89.0896 208.327 89.0896 202.786 88.0434 198.609 85.9506 195.796 83.8581 192.968 80.7609 191.552 76.6593 191.552 72.5409 191.552 69.4354 192.968 67.3429 195.796 65.2501 198.609 64.2038 202.786 64.2038 208.327 64.2038 213.851 65.2501 218.029 67.3429 220.857 69.4354 223.671 72.5409 225.076 76.6593 225.076Z" fill="#876917" transform="matrix(1.00758 0 0 1 1069.3 393.948)"/></g></g></g><rect x="935" y="555" width="133" height="132" fill="#417F00"/><text fill="#FFFFF4" font-family="Bahnschrift Condensed,Bahnschrift Condensed_MSFontService,sans-serif" font-weight="400" font-stretch="condensed" font-size="37" transform="translate(944.956 597)">27<tspan font-size="16" x="40.1889" y="-16">HYPOSTATIC</tspan><tspan font-size="16" x="40.1889" y="3">CASE</tspan><tspan font-family="Calibri Light,Calibri Light_MSFontService,sans-serif" font-weight="300" font-stretch="normal" font-size="48" x="17.6251" y="62">-</tspan><tspan font-family="Calibri Light,Calibri Light_MSFontService,sans-serif" font-weight="300" font-stretch="normal" font-size="48" x="32.2917" y="62">isш</tspan></text><rect x="755" y="555" width="132" height="132" fill="#86B81B"/><text fill="#FFFFF4" font-family="Bahnschrift Condensed,Bahnschrift Condensed_MSFontService,sans-serif" font-weight="400" font-stretch="condensed" font-size="37" transform="translate(764.256 597)">26<tspan font-size="16" x="40.1888" y="-16">COMPARATIVE</tspan><tspan font-size="16" x="40.1888" y="3">CASE</tspan><tspan font-family="Calibri Light,Calibri Light_MSFontService,sans-serif" font-weight="300" font-stretch="normal" font-size="48" x="6.26166" y="62">-</tspan><tspan font-family="Calibri Light,Calibri Light_MSFontService,sans-serif" font-weight="300" font-stretch="normal" font-size="48" x="20.9283" y="62">apra</tspan></text><rect x="573" y="555" width="133" height="132" fill="#302020"/><text fill="#FFFFF4" font-family="Bahnschrift Condensed,Bahnschrift Condensed_MSFontService,sans-serif" font-weight="400" font-stretch="condensed" font-size="37" transform="translate(582.886 597)">25<tspan font-size="16" x="40.1889" y="-16">ESSIVE</tspan><tspan font-size="16" x="75.1889" y="-16">-</tspan><tspan font-size="16" x="40.1889" y="3">FORMAL CASE</tspan><tspan font-family="Calibri Light,Calibri Light_MSFontService,sans-serif" font-weight="300" font-stretch="normal" font-size="48" x="19.6815" y="62">-</tspan><tspan font-family="Calibri Light,Calibri Light_MSFontService,sans-serif" font-weight="300" font-stretch="normal" font-size="48" x="34.3481" y="62">ahi</tspan></text><rect x="391" y="555" width="133" height="132" fill="#C7000B"/><text fill="#FFFFF4" font-family="Bahnschrift Condensed,Bahnschrift Condensed_MSFontService,sans-serif" font-weight="400" font-stretch="condensed" font-size="37" transform="translate(400.991 597)">24<tspan font-size="16" x="40.1889" y="-16">DISTRIBUTIVE</tspan><tspan font-size="16" x="40.1889" y="3">CASE</tspan><tspan font-family="Calibri Light,Calibri Light_MSFontService,sans-serif" font-weight="300" font-stretch="normal" font-size="48" x="8.37506" y="62">-</tspan><tspan font-family="Calibri Light,Calibri Light_MSFontService,sans-serif" font-weight="300" font-stretch="normal" font-size="48" x="23.0417" y="62">aшn</tspan></text><rect x="210" y="555" width="132" height="132" fill="#7C402E"/><text fill="#FFFFF4" font-family="Bahnschrift Condensed,Bahnschrift Condensed_MSFontService,sans-serif" font-weight="400" font-stretch="condensed" font-size="37" transform="translate(219.621 597)">23<tspan font-size="16" x="40.1889" y="-16">INSTRUMENTAL</tspan><tspan font-size="16" x="40.1889" y="3">CASE</tspan><tspan font-family="Calibri Light,Calibri Light_MSFontService,sans-serif" font-weight="300" font-stretch="normal" font-size="48" x="27.9584" y="62">-</tspan><tspan font-family="Calibri Light,Calibri Light_MSFontService,sans-serif" font-weight="300" font-stretch="normal" font-size="48" x="42.625" y="62">iж</tspan></text><rect x="29" y="555" width="132" height="132" fill="#004C71"/><text fill="#FFFFF4" font-family="Bahnschrift Condensed,Bahnschrift Condensed_MSFontService,sans-serif" font-weight="400" font-stretch="condensed" font-size="37" transform="translate(38.2512 597)">22<tspan font-size="16" x="40.1889" y="-16">CAUSAL</tspan><tspan font-size="16" x="40.1889" y="3">CASE</tspan><tspan font-family="Calibri Light,Calibri Light_MSFontService,sans-serif" font-weight="300" font-stretch="normal" font-size="48" x="15.7481" y="62">-</tspan><tspan font-family="Calibri Light,Calibri Light_MSFontService,sans-serif" font-weight="300" font-stretch="normal" font-size="48" x="30.4148" y="62">eca</tspan></text><rect x="1118" y="407" width="133" height="132" fill="#C7000B"/><text fill="#FFFFF4" font-family="Bahnschrift Condensed,Bahnschrift Condensed_MSFontService,sans-serif" font-weight="400" font-stretch="condensed" font-size="37" transform="translate(1127.83 449)">21<tspan font-size="16" x="40.189" y="-16">DEPRIVIVE</tspan><tspan font-size="16" x="40.189" y="3">CASE</tspan><tspan font-family="Calibri Light,Calibri Light_MSFontService,sans-serif" font-weight="300" font-stretch="normal" font-size="48" x="13.6084" y="61">-</tspan><tspan font-family="Calibri Light,Calibri Light_MSFontService,sans-serif" font-weight="300" font-stretch="normal" font-size="48" x="28.275" y="61">atig</tspan></text><rect x="937" y="407" width="132" height="132" fill="#9B95C9"/><text fill="#FFFFF4" font-family="Bahnschrift Condensed,Bahnschrift Condensed_MSFontService,sans-serif" font-weight="400" font-stretch="condensed" font-size="37" transform="translate(946.185 449)">20<tspan font-size="16" x="40.1889" y="-16">GAINIVE</tspan><tspan font-size="16" x="40.1889" y="3">CASE</tspan><tspan font-family="Calibri Light,Calibri Light_MSFontService,sans-serif" font-weight="300" font-stretch="normal" font-size="48" x="24.8584" y="62">-</tspan><tspan font-family="Calibri Light,Calibri Light_MSFontService,sans-serif" font-weight="300" font-stretch="normal" font-size="48" x="39.525" y="62">ati</tspan></text><rect x="755" y="407" width="132" height="132" fill="#004C71"/><text fill="#FFFFF4" font-family="Bahnschrift Condensed,Bahnschrift Condensed_MSFontService,sans-serif" font-weight="400" font-stretch="condensed" font-size="37" transform="translate(764.703 449)">19<tspan font-size="16" x="40.1888" y="-16">TRANSLATIVE</tspan><tspan font-size="16" x="40.1888" y="3">CASE</tspan><tspan font-family="Calibri Light,Calibri Light_MSFontService,sans-serif" font-weight="300" font-stretch="normal" font-size="48" x="18.875" y="62">-</tspan><tspan font-family="Calibri Light,Calibri Light_MSFontService,sans-serif" font-weight="300" font-stretch="normal" font-size="48" x="33.5416" y="62">wir</tspan></text><rect x="574" y="407" width="132" height="132" fill="#38B48B"/><text fill="#FFFFF4" font-family="Bahnschrift Condensed,Bahnschrift Condensed_MSFontService,sans-serif" font-weight="400" font-stretch="condensed" font-size="37" transform="translate(583.221 449)">18<tspan font-size="16" x="40.1888" y="-16">COMITATIVE</tspan><tspan font-size="16" x="40.1888" y="3">CASE</tspan><tspan font-family="Calibri Light,Calibri Light_MSFontService,sans-serif" font-weight="300" font-stretch="normal" font-size="48" x="8.59808" y="62">-</tspan><tspan font-family="Calibri Light,Calibri Light_MSFontService,sans-serif" font-weight="300" font-stretch="normal" font-size="48" x="23.2647" y="62">uпix</tspan></text><rect x="392" y="407" width="132" height="132" fill="#36C8B5"/><text fill="#FFFFF4" font-family="Bahnschrift Condensed,Bahnschrift Condensed_MSFontService,sans-serif" font-weight="400" font-stretch="condensed" font-size="37" transform="translate(401.215 449)">17<tspan font-size="16" x="34.5964" y="-16">FREQUENTATIVE</tspan><tspan font-size="16" x="34.5964" y="3">CASE</tspan><tspan font-family="Calibri Light,Calibri Light_MSFontService,sans-serif" font-weight="300" font-stretch="normal" font-size="48" x="9.95837" y="62">-</tspan><tspan font-family="Calibri Light,Calibri Light_MSFontService,sans-serif" font-weight="300" font-stretch="normal" font-size="48" x="24.625" y="62">oƣa</tspan></text><rect x="210" y="407" width="132" height="132" fill="#0095D9"/><text fill="#FFFFF4" font-family="Bahnschrift Condensed,Bahnschrift Condensed_MSFontService,sans-serif" font-weight="400" font-stretch="condensed" font-size="37" transform="translate(219.733 449)">16<tspan font-size="16" x="40.1889" y="-16">TEMPORAL</tspan><tspan font-size="16" x="40.1889" y="3">CASE</tspan><tspan font-family="Calibri Light,Calibri Light_MSFontService,sans-serif" font-weight="300" font-stretch="normal" font-size="48" x="20.0417" y="62">-</tspan><tspan font-family="Calibri Light,Calibri Light_MSFontService,sans-serif" font-weight="300" font-stretch="normal" font-size="48" x="34.7084" y="62">oal</tspan></text><rect x="29" y="407" width="132" height="132" fill="#86B81B"/><text fill="#FFFFF4" font-family="Bahnschrift Condensed,Bahnschrift Condensed_MSFontService,sans-serif" font-weight="400" font-stretch="condensed" font-size="37" transform="translate(38.2512 449)">15<tspan font-size="16" x="40.1889" y="-16">APUDESSIVE</tspan><tspan font-size="16" x="40.1889" y="3">CASE</tspan><tspan font-family="Calibri Light,Calibri Light_MSFontService,sans-serif" font-weight="300" font-stretch="normal" font-size="48" x="27.2814" y="61">-</tspan><tspan font-family="Calibri Light,Calibri Light_MSFontService,sans-serif" font-weight="300" font-stretch="normal" font-size="48" x="41.9481" y="61">ya</tspan></text><rect x="1118" y="258" width="133" height="133" fill="#302020"/><text fill="#FFFFF4" font-family="Bahnschrift Condensed,Bahnschrift Condensed_MSFontService,sans-serif" font-weight="400" font-stretch="condensed" font-size="37" transform="translate(1127.83 300)">14<tspan font-size="16" x="40.189" y="-15">SUBESSIVE</tspan><tspan font-size="16" x="40.189" y="4">CASE</tspan><tspan font-family="Calibri Light,Calibri Light_MSFontService,sans-serif" font-weight="300" font-stretch="normal" font-size="48" x="28.1251" y="62">-</tspan><tspan font-family="Calibri Light,Calibri Light_MSFontService,sans-serif" font-weight="300" font-stretch="normal" font-size="48" x="42.7917" y="62">es</tspan></text><rect x="937" y="259" width="132" height="132" fill="#7C402E"/><text fill="#FFFFF4" font-family="Bahnschrift Condensed,Bahnschrift Condensed_MSFontService,sans-serif" font-weight="400" font-stretch="condensed" font-size="37" transform="translate(946.185 301)">13<tspan font-size="16" x="40.1889" y="-16">SUPERESSIVE</tspan><tspan font-size="16" x="40.1889" y="3">CASE</tspan><tspan font-family="Calibri Light,Calibri Light_MSFontService,sans-serif" font-weight="300" font-stretch="normal" font-size="48" x="28.4584" y="61">-</tspan><tspan font-family="Calibri Light,Calibri Light_MSFontService,sans-serif" font-weight="300" font-stretch="normal" font-size="48" x="43.1251" y="61">az</tspan></text><rect x="755" y="259" width="132" height="132" fill="#C39143"/><text fill="#FFFFF4" font-family="Bahnschrift Condensed,Bahnschrift Condensed_MSFontService,sans-serif" font-weight="400" font-stretch="condensed" font-size="37" transform="translate(764.703 301)">12<tspan font-size="16" x="34.5964" y="-16">EXTERIORESSIVE</tspan><tspan font-size="16" x="34.5964" y="3">CASE</tspan><tspan font-family="Calibri Light,Calibri Light_MSFontService,sans-serif" font-weight="300" font-stretch="normal" font-size="48" x="32.0417" y="61">-</tspan><tspan font-family="Calibri Light,Calibri Light_MSFontService,sans-serif" font-weight="300" font-stretch="normal" font-size="48" x="46.7084" y="61">el</tspan></text><rect x="574" y="259" width="132" height="132" fill="#813B00"/><text fill="#FFFFF4" font-family="Bahnschrift Condensed,Bahnschrift Condensed_MSFontService,sans-serif" font-weight="400" font-stretch="condensed" font-size="37" transform="translate(583.221 301)">11<tspan font-size="16" x="40.1888" y="-16">INESSIVE</tspan><tspan font-size="16" x="40.1888" y="3">CASE</tspan><tspan font-family="Calibri Light,Calibri Light_MSFontService,sans-serif" font-weight="300" font-stretch="normal" font-size="48" x="23.5147" y="61">-</tspan><tspan font-family="Calibri Light,Calibri Light_MSFontService,sans-serif" font-weight="300" font-stretch="normal" font-size="48" x="38.1813" y="61">oб</tspan></text><rect x="392" y="259" width="132" height="132" fill="#FD9900"/><text fill="#FFFFF4" font-family="Bahnschrift Condensed,Bahnschrift Condensed_MSFontService,sans-serif" font-weight="400" font-stretch="condensed" font-size="37" transform="translate(401.215 301)">10<tspan font-size="16" x="40.1889" y="-16">PERTINGENT</tspan><tspan font-size="16" x="40.1889" y="3">CASE</tspan><tspan font-family="Calibri Light,Calibri Light_MSFontService,sans-serif" font-weight="300" font-stretch="normal" font-size="48" x="24.2083" y="61">-</tspan><tspan font-family="Calibri Light,Calibri Light_MSFontService,sans-serif" font-weight="300" font-stretch="normal" font-size="48" x="38.875" y="61">op</tspan></text><rect x="210" y="259" width="132" height="132" fill="#9B95C9"/><text fill="#FFFFF4" font-family="Bahnschrift Condensed,Bahnschrift Condensed_MSFontService,sans-serif" font-weight="400" font-stretch="condensed" font-size="37" transform="translate(227.233 301)">9<tspan font-size="16" x="32.6889" y="-16">PROLATIVE</tspan><tspan font-size="16" x="32.6889" y="3">CASE</tspan><tspan font-family="Calibri Light,Calibri Light_MSFontService,sans-serif" font-weight="300" font-stretch="normal" font-size="48" x="8.25838" y="61">-</tspan><tspan font-family="Calibri Light,Calibri Light_MSFontService,sans-serif" font-weight="300" font-stretch="normal" font-size="48" x="22.925" y="61">axu</tspan></text><rect x="29" y="258" width="132" height="133" fill="#918D40"/><text fill="#FFFFF4" font-family="Bahnschrift Condensed,Bahnschrift Condensed_MSFontService,sans-serif" font-weight="400" font-stretch="condensed" font-size="37" transform="translate(45.7512 300)">8<tspan font-size="16" x="32.6889" y="-15">ABLATIVE</tspan><tspan font-size="16" x="32.6889" y="4">CASE</tspan><tspan font-family="Calibri Light,Calibri Light_MSFontService,sans-serif" font-weight="300" font-stretch="normal" font-size="48" x="4.51475" y="62">-</tspan><tspan font-family="Calibri Light,Calibri Light_MSFontService,sans-serif" font-weight="300" font-stretch="normal" font-size="48" x="19.1814" y="62">end</tspan></text><rect x="1118" y="110" width="133" height="132" fill="#813B00"/><text fill="#FFFFF4" font-family="Bahnschrift Condensed,Bahnschrift Condensed_MSFontService,sans-serif" font-weight="400" font-stretch="condensed" font-size="37" transform="translate(1135.33 152)">7<tspan font-size="16" x="32.689" y="-16">ALLATIVE</tspan><tspan font-size="16" x="32.689" y="3">CASE</tspan><tspan font-family="Calibri Light,Calibri Light_MSFontService,sans-serif" font-weight="300" font-stretch="normal" font-size="48" x="8.17175" y="62">-</tspan><tspan font-family="Calibri Light,Calibri Light_MSFontService,sans-serif" font-weight="300" font-stretch="normal" font-size="48" x="22.8384" y="62">ako</tspan></text><rect x="937" y="110" width="132" height="133" fill="#7FCCE3"/><text fill="#FFFFF4" font-family="Bahnschrift Condensed,Bahnschrift Condensed_MSFontService,sans-serif" font-weight="400" font-stretch="condensed" font-size="37" transform="translate(953.685 152)">6<tspan font-size="16" x="32.6889" y="-15">LOCATIVE</tspan><tspan font-size="16" x="32.6889" y="4">CASE</tspan><tspan font-family="Calibri Light,Calibri Light_MSFontService,sans-serif" font-weight="300" font-stretch="normal" font-size="48" x="4.79169" y="62">-</tspan><tspan font-family="Calibri Light,Calibri Light_MSFontService,sans-serif" font-weight="300" font-stretch="normal" font-size="48" x="19.4584" y="62">uъe</tspan></text><rect x="755" y="110" width="132" height="133" fill="#FD9900"/><text fill="#FFFFF4" font-family="Bahnschrift Condensed,Bahnschrift Condensed_MSFontService,sans-serif" font-weight="400" font-stretch="condensed" font-size="37" transform="translate(772.203 152)">5<tspan font-size="16" x="32.6888" y="-15">VOCATIVE</tspan><tspan font-size="16" x="32.6888" y="4">CASE</tspan><tspan font-family="Calibri Light,Calibri Light_MSFontService,sans-serif" font-weight="300" font-stretch="normal" font-size="48" x="13.2983" y="62">-</tspan><tspan font-family="Calibri Light,Calibri Light_MSFontService,sans-serif" font-weight="300" font-stretch="normal" font-size="48" x="27.965" y="62">u’e</tspan></text><rect x="574" y="110" width="132" height="133" fill="#C7000B"/><text fill="#FFFFF4" font-family="Bahnschrift Condensed,Bahnschrift Condensed_MSFontService,sans-serif" font-weight="400" font-stretch="condensed" font-size="37" transform="translate(590.721 152)">4<tspan font-size="16" x="32.6888" y="-15">ERGATIVE</tspan><tspan font-size="16" x="32.6888" y="4">CASE</tspan><tspan font-family="Calibri Light,Calibri Light_MSFontService,sans-serif" font-weight="300" font-stretch="normal" font-size="48" x="28.8481" y="62">-</tspan><tspan font-family="Calibri Light,Calibri Light_MSFontService,sans-serif" font-weight="300" font-stretch="normal" font-size="48" x="43.5148" y="62">ø</tspan></text><rect x="392" y="110" width="132" height="133" fill="#417F00"/><text fill="#FFFFF4" font-family="Bahnschrift Condensed,Bahnschrift Condensed_MSFontService,sans-serif" font-weight="400" font-stretch="condensed" font-size="37" transform="translate(408.715 152)">3<tspan font-size="16" x="32.6889" y="-15">OBLIQUE CASE</tspan><tspan font-size="16" x="32.6889" y="4">/ DATIVE CASE</tspan><tspan font-family="Calibri Light,Calibri Light_MSFontService,sans-serif" font-weight="300" font-stretch="normal" font-size="48" x="24.0417" y="62">-</tspan><tspan font-family="Calibri Light,Calibri Light_MSFontService,sans-serif" font-weight="300" font-stretch="normal" font-size="48" x="38.7083" y="62">e’</tspan></text><rect x="210" y="110" width="132" height="133" fill="#C39143"/><text fill="#FFFFF4" font-family="Bahnschrift Condensed,Bahnschrift Condensed_MSFontService,sans-serif" font-weight="400" font-stretch="condensed" font-size="37" transform="translate(227.233 152)">2<tspan font-size="16" x="32.6889" y="-15">GENITIVE</tspan><tspan font-size="16" x="32.6889" y="4">CASE</tspan><tspan font-family="Calibri Light,Calibri Light_MSFontService,sans-serif" font-weight="300" font-stretch="normal" font-size="48" x="26.2084" y="62">-</tspan><tspan font-family="Calibri Light,Calibri Light_MSFontService,sans-serif" font-weight="300" font-stretch="normal" font-size="48" x="40.8751" y="62">ic</tspan></text><rect x="29" y="110" width="132" height="132" fill="#7C402E"/><text fill="#FFFFF4" font-family="Bahnschrift Condensed,Bahnschrift Condensed_MSFontService,sans-serif" font-weight="400" font-stretch="condensed" font-size="37" transform="translate(45.7512 152)">1<tspan font-size="16" x="32.6889" y="-16">ABSOLUTIVE</tspan><tspan font-size="16" x="32.6889" y="3">CASE</tspan><tspan font-family="Calibri Light,Calibri Light_MSFontService,sans-serif" font-weight="300" font-stretch="normal" font-size="48" x="13.4314" y="62">-</tspan><tspan font-family="Calibri Light,Calibri Light_MSFontService,sans-serif" font-weight="300" font-stretch="normal" font-size="48" x="28.0981" y="62">bix</tspan><tspan fill="#0095D9" font-family="Bahnschrift,Bahnschrift_MSFontService,sans-serif" font-stretch="normal" font-size="80" x="42.8562" y="-67">SAШASAT,</tspan><tspan fill="#0095D9" font-family="Bahnschrift,Bahnschrift_MSFontService,sans-serif" font-stretch="normal" font-size="32" x="434.961" y="-105">DA</tspan><tspan fill="#0095D9" font-family="Bahnschrift,Bahnschrift_MSFontService,sans-serif" font-stretch="normal" font-size="32" x="472.627" y="-105">П</tspan><tspan fill="#0095D9" font-family="Bahnschrift,Bahnschrift_MSFontService,sans-serif" font-stretch="normal" font-size="32" x="492.294" y="-105">ALEGOTN </tspan><tspan fill="#0095D9" font-family="Bahnschrift,Bahnschrift_MSFontService,sans-serif" font-stretch="normal" font-size="32" x="622.127" y="-105">rasic</tspan><tspan fill="#0095D9" font-family="Bahnschrift,Bahnschrift_MSFontService,sans-serif" font-stretch="normal" font-size="32" x="434.961" y="-67">GEGWIBARUЪE </tspan><tspan fill="#0095D9" font-family="Bahnschrift,Bahnschrift_MSFontService,sans-serif" font-stretch="normal" font-size="32" x="640.961" y="-67">ge</tspan><tspan fill="#0095D9" font-family="Bahnschrift,Bahnschrift_MSFontService,sans-serif" font-stretch="normal" font-size="32" x="678.127" y="-67">tas</tspan><tspan fill="#36C8B5" font-family="Bahnschrift,Bahnschrift_MSFontService,sans-serif" font-style="oblique" font-stretch="normal" font-size="24" x="743.736" y="-97">—</tspan><tspan fill="#36C8B5" font-family="Bahnschrift,Bahnschrift_MSFontService,sans-serif" font-style="oblique" font-stretch="normal" font-size="24" x="762.236" y="-97">Grammatical Cases whose Numerousness</tspan><tspan fill="#36C8B5" font-family="Bahnschrift,Bahnschrift_MSFontService,sans-serif" font-style="oblique" font-stretch="normal" font-size="24" x="743.736" y="-68">Other (Language)s don’t Have</tspan></text></g></svg>