<svg width="1306" height="722" xmlns="http://www.w3.org/2000/svg" xmlns:xlink="http://www.w3.org/1999/xlink" overflow="hidden"><defs><clipPath id="clip0"><rect x="-1" y="-1" width="1306" height="722"/></clipPath><linearGradient x1="357" y1="51.0001" x2="927.929" y2="51.0001" gradientUnits="userSpaceOnUse" spreadMethod="reflect" id="stroke1"><stop offset="0" stop-color="#86B81B"/><stop offset="0.5" stop-color="#86B81B"/><stop offset="0.75" stop-color="#60F040"/><stop offset="1" stop-color="#60F040"/></linearGradient><linearGradient x1="448" y1="601" x2="829.953" y2="601" gradientUnits="userSpaceOnUse" spreadMethod="reflect" id="stroke2"><stop offset="0" stop-color="#86B81B"/><stop offset="0.5" stop-color="#86B81B"/><stop offset="0.75" stop-color="#60F040"/><stop offset="1" stop-color="#60F040"/></linearGradient><linearGradient x1="882" y1="601" x2="1263.95" y2="601" gradientUnits="userSpaceOnUse" spreadMethod="reflect" id="stroke3"><stop offset="0" stop-color="#86B81B"/><stop offset="0.5" stop-color="#86B81B"/><stop offset="0.75" stop-color="#60F040"/><stop offset="1" stop-color="#60F040"/></linearGradient><linearGradient x1="20" y1="601" x2="401.953" y2="601" gradientUnits="userSpaceOnUse" spreadMethod="reflect" id="stroke4"><stop offset="0" stop-color="#86B81B"/><stop offset="0.5" stop-color="#86B81B"/><stop offset="0.75" stop-color="#60F040"/><stop offset="1" stop-color="#60F040"/></linearGradient></defs><g clip-path="url(#clip0)" transform="translate(1 1)"><rect x="0" y="0" width="1280" height="720" fill="#FFFFF4"/><path d="M357 51 923.929 51.0001" stroke="url(#stroke1)" stroke-width="8" stroke-miterlimit="8" fill="none" fill-rule="evenodd"/><path d="M19 51 356.062 51.0001" stroke="#36C8B5" stroke-width="8" stroke-miterlimit="8" fill="none" fill-rule="evenodd"/><path d="M923 47 1240.13 47.0001 1240.13 55.0001 923 55ZM1236.13 39.0001 1260.13 51.0001 1236.13 63.0001Z" fill="#38B48B"/><text fill="#302020" font-family="HGSeikaishotaiPRO,HGSeikaishotaiPRO_MSFontService,sans-serif" font-weight="400" font-size="48" writing-mode="tb-rl" transform="translate(339.71 67)" x="17.25" y="6.75">開始相</text><text fill="#302020" font-family="HGSeikaishotaiPRO,HGSeikaishotaiPRO_MSFontService,sans-serif" font-weight="400" font-size="48" writing-mode="tb-rl" transform="translate(906.64 67)" x="17.25" y="6.75">完了</text><text fill="#302020" font-family="HGSeikaishotaiPRO,HGSeikaishotaiPRO_MSFontService,sans-serif" font-weight="400" font-size="48" writing-mode="tb-rl" transform="translate(906.64 163)" x="17.25" y="6.75">相</text><text fill="#302020" font-family="HGSeikaishotaiPRO,HGSeikaishotaiPRO_MSFontService,sans-serif" font-weight="400" font-size="48" writing-mode="tb-rl" transform="translate(829.09 67)" x="17.25" y="6.75">将終相</text><text fill="#302020" font-family="HGSeikaishotaiPRO,HGSeikaishotaiPRO_MSFontService,sans-serif" font-weight="400" font-size="48" writing-mode="tb-rl" transform="translate(622.538 67)" x="17.25" y="6.75">継続</text><text fill="#302020" font-family="HGSeikaishotaiPRO,HGSeikaishotaiPRO_MSFontService,sans-serif" font-weight="400" font-size="48" writing-mode="tb-rl" transform="translate(622.538 163)" x="17.25" y="6.75">相</text><text fill="#302020" font-family="HGSeikaishotaiPRO,HGSeikaishotaiPRO_MSFontService,sans-serif" font-weight="400" font-size="48" writing-mode="tb-rl" transform="translate(1075.21 67)" x="17.25" y="6.75">アオリスト</text><text fill="#302020" font-family="HGSeikaishotaiPRO,HGSeikaishotaiPRO_MSFontService,sans-serif" font-weight="400" font-size="48" writing-mode="tb-rl" transform="translate(1075.21 273)" x="17.25" y="6.75">相</text><text fill="#302020" font-family="HGSeikaishotaiPRO,HGSeikaishotaiPRO_MSFontService,sans-serif" font-weight="400" font-size="48" writing-mode="tb-rl" transform="translate(163.73 67)" x="17.25" y="6.75">未然</text><text fill="#302020" font-family="HGSeikaishotaiPRO,HGSeikaishotaiPRO_MSFontService,sans-serif" font-weight="400" font-size="48" writing-mode="tb-rl" transform="translate(163.73 163)" x="17.25" y="6.75">相</text><path d="M608 321 702.488 321" stroke="#86B81B" stroke-width="8" stroke-miterlimit="8" fill="none" fill-rule="evenodd"/><text fill="#302020" font-family="HGSeikaishotaiPRO,HGSeikaishotaiPRO_MSFontService,sans-serif" font-weight="400" font-size="48" writing-mode="tb-rl" transform="translate(787.6 283)" x="17.25" y="6.75">中止</text><text fill="#302020" font-family="HGSeikaishotaiPRO,HGSeikaishotaiPRO_MSFontService,sans-serif" font-weight="400" font-size="48" writing-mode="tb-rl" transform="translate(787.6 379)" x="17.25" y="6.75">相</text><path d="M345 50.5C345 44.1487 350.149 39 356.5 39 362.851 39 368 44.1487 368 50.5 368 56.8513 362.851 62 356.5 62 350.149 62 345 56.8513 345 50.5Z" fill="#C39143" fill-rule="evenodd"/><path d="M912 50.5C912 44.1487 917.149 39 923.5 39 929.851 39 935 44.1487 935 50.5 935 56.8513 929.851 62 923.5 62 917.149 62 912 56.8513 912 50.5Z" fill="#918D40" fill-rule="evenodd"/><path d="M483 51C517.794 51 546 111.442 546 186" stroke="#86B81B" stroke-width="8" stroke-miterlimit="8" fill="none" fill-rule="evenodd"/><path d="M608.5 321C573.982 321 546 260.558 546 186" stroke="#86B81B" stroke-width="8" stroke-miterlimit="8" fill="none" fill-rule="evenodd"/><path d="M56.0878 0 85.138 31.8074 73.1551 35.5584 109.746 62.8144 97.763 67.3658 143 113 66.2831 78.0275 80.9142 73.1727 33.2475 50.7715 50.3281 43.8503 0 20.3505Z" fill="#FFD400" fill-rule="evenodd" transform="matrix(-1 0 0 1 804 242)"/><path d="M3.28084e-07 476 1260 476 1260 484-3.28084e-07 484ZM1256 468 1280 480 1256 492Z" fill="#86B81B"/><text fill="#302020" font-family="HGSeikaishotaiPRO,HGSeikaishotaiPRO_MSFontService,sans-serif" font-weight="400" font-size="48" transform="translate(190.003 534)">普遍相</text><path d="M448 601 825.953 601" stroke="url(#stroke2)" stroke-width="8" stroke-miterlimit="8" fill="none" fill-rule="evenodd"/><path d="M437 601.5C437 595.149 441.925 590 448 590 454.075 590 459 595.149 459 601.5 459 607.851 454.075 613 448 613 441.925 613 437 607.851 437 601.5Z" fill="#C39143" fill-rule="evenodd"/><path d="M815 601.5C815 595.149 819.925 590 826 590 832.075 590 837 595.149 837 601.5 837 607.851 832.075 613 826 613 819.925 613 815 607.851 815 601.5Z" fill="#918D40" fill-rule="evenodd"/><text fill="#302020" font-family="HGSeikaishotaiPRO,HGSeikaishotaiPRO_MSFontService,sans-serif" font-weight="400" font-size="48" transform="translate(189.25 656)">反復相</text><path d="M882 601 1259.95 601" stroke="url(#stroke3)" stroke-width="8" stroke-miterlimit="8" fill="none" fill-rule="evenodd"/><path d="M870 601.5C870 595.149 875.149 590 881.5 590 887.851 590 893 595.149 893 601.5 893 607.851 887.851 613 881.5 613 875.149 613 870 607.851 870 601.5Z" fill="#C39143" fill-rule="evenodd"/><path d="M1248 601.5C1248 595.149 1253.15 590 1259.5 590 1265.85 590 1271 595.149 1271 601.5 1271 607.851 1265.85 613 1259.5 613 1253.15 613 1248 607.851 1248 601.5Z" fill="#918D40" fill-rule="evenodd"/><path d="M20 601 397.953 601" stroke="url(#stroke4)" stroke-width="8" stroke-miterlimit="8" fill="none" fill-rule="evenodd"/><path d="M9 601.5C9 595.149 14.1487 590 20.5 590 26.8513 590 32 595.149 32 601.5 32 607.851 26.8513 613 20.5 613 14.1487 613 9 607.851 9 601.5Z" fill="#C39143" fill-rule="evenodd"/><path d="M387 601.5C387 595.149 392.149 590 398.5 590 404.851 590 410 595.149 410 601.5 410 607.851 404.851 613 398.5 613 392.149 613 387 607.851 387 601.5Z" fill="#918D40" fill-rule="evenodd"/></g></svg>